# xmcd
# 
# Track frame offsets:
#     150
#     15109
#     31874
#     46000
#     58991
#     73476
#     92907
#     113066
#     129806
#     147254
#     162316
# 
# Disc length: 2472
# 
# Revision: 2
# Processed by: cddbd v1.5.2PL0 Copyright (c) Steve Scherf et al.
# Submitted via: fre:ac v1.1beta1pre5
# 
DISCID=8d09a60b
DTITLE=Mystery Skulls - Forever
DYEAR=2014
DGENRE=Electro
TTITLE0=Forever
TTITLE1=The Future
TTITLE2=Paralyzed
TTITLE3=Hellbent (feat. Snowblood)
TTITLE4=Fantasy
TTITLE5=Ghost
TTITLE6=Magic (feat. Brandy and Nile Rodgers)
TTITLE7=Number (feat. Brandy and Nile Rodgers)
TTITLE8=When I'M With You
TTITLE9=Body High
TTITLE10=Every Note
EXTD=
EXTT0=
EXTT1=
EXTT2=
EXTT3=
EXTT4=
EXTT5=
EXTT6=
EXTT7=
EXTT8=
EXTT9=
EXTT10=
PLAYORDER=
